#!OML:ASF F:\VICON\USERDATA\INSTALL\rory3\rory3.ASF
:FULLY-SPECIFIED
:DEGREES
1539
root -7.85012 17.9486 11.3824 362.923 137.94 -361.455
lowerback 12.9883 5.96494 -0.159359
upperback 3.53565 8.15931 -4.83165
thorax -2.79442 4.2696 -6.19475
lowerneck -14.1431 7.75352 -4.08941
upperneck 47.9409 23.9887 2.65286
head 20.6981 10.599 7.40612
rclavicle -3.27995e-014 6.91771e-014
rhumerus -36.0722 -11.1017 -75.574
rradius 40.7918
rwrist 3.53392
rhand -13.6376 9.09851
rfingers 7.12502
rthumb 12.4786 -20.5089
lclavicle -3.27995e-014 6.91771e-014
lhumerus -33.246 4.97689 75.5418
lradius 45.3832
lwrist 0.639629
lhand -16.6654 30.3161
lfingers 7.12502
lthumb 9.55822 60.0793
rfemur -20.5955 -14.0924 19.4186
rtibia 60.4835
rfoot -9.72348 -9.64604
rtoes 0.83491
lfemur -9.44171 -8.49881 -24.5835
ltibia 20.2363
lfoot 173.846 -199.871
ltoes 26.2664
1540
root -7.93731 17.9549 11.4269 363.045 137.657 -361.434
lowerback 12.924 6.06242 -0.109573
upperback 3.43628 8.28369 -4.86738
thorax -2.83923 4.32599 -6.27581
lowerneck -14.257 7.66775 -3.94371
upperneck 48.1492 23.9403 2.68186
head 20.9058 10.5842 7.45492
rclavicle 4.17448e-015 1.11319e-014
rhumerus -35.8663 -11.0127 -75.5103
rradius 41.2516
rwrist 3.15097
rhand -13.9629 8.89235
rfingers 7.12502
rthumb 12.1649 -20.7339
lclavicle 4.17448e-015 1.11319e-014
lhumerus -33.7539 5.13538 75.3158
lradius 45.1069
lwrist 0.363645
lhand -16.2214 30.7859
lfingers 7.12502
lthumb 9.98659 60.529
rfemur -19.6025 -14.2327 19.6022
rtibia 60.3452
rfoot -9.64523 -9.42504
rtoes 0.851865
lfemur -9.90066 -8.79275 -24.6671
ltibia 20.3077
lfoot 173.356 -199.426
ltoes 23.0875
1541
root -8.02504 17.9596 11.4691 363.145 137.332 -361.454
lowerback 12.8696 6.18371 -0.13959
upperback 3.30835 8.42479 -4.87411
thorax -2.93329 4.38713 -6.28886
lowerneck -14.262 7.60256 -3.99956
upperneck 48.2735 23.8111 2.8643
head 20.9444 10.5506 7.54187
rclavicle -1.23644e-013 2.22639e-014
rhumerus -35.6835 -10.8786 -75.3874
rradius 41.6673
rwrist 2.7757
rhand -14.1857 8.74128
rfingers 7.12502
rthumb 11.95 -20.8976
lclavicle -1.23644e-013 2.22639e-014
lhumerus -34.4436 5.45769 75.1256
lradius 44.9259
lwrist 0.00391375
lhand -15.9998 30.7954
lfingers 7.12502
lthumb 10.2004 60.5281
rfemur -18.6114 -14.3595 19.7483
rtibia 60.0784
rfoot -9.58119 -9.37397
rtoes 1.23686
lfemur -10.3467 -9.35999 -24.7733
ltibia 20.361
lfoot 173.108 -198.54
ltoes 21.0587
1542
root -8.11231 17.9569 11.5093 363.287 136.988 -361.528
lowerback 12.6762 6.29033 -0.204672
upperback 3.19955 8.54764 -4.89758
thorax -2.93641 4.44232 -6.27639
lowerneck -14.1731 7.62003 -4.05105
upperneck 48.2097 23.736 2.94128
head 20.8428 10.541 7.5402
rclavicle 7.23576e-014 2.38542e-014
rhumerus -35.4276 -10.7711 -75.2852
rradius 42.0065
rwrist 2.61314
rhand -14.3727 8.80536
rfingers 7.12502
rthumb 11.7697 -20.844
lclavicle 7.23576e-014 2.38542e-014
lhumerus -34.8243 5.85792 74.8863
lradius 44.4247
lwrist -0.285316
lhand -16.8245 29.5869
lfingers 7.12502
lthumb 9.4047 59.3571
rfemur -17.6599 -14.4271 19.8326
rtibia 59.6716
rfoot -9.64889 -9.01765
rtoes 2.24119
lfemur -10.9442 -9.10972 -24.9147
ltibia 20.4366
lfoot 173.276 -198.443
ltoes 20.8258
1543
root -8.20141 17.9531 11.5519 363.444 136.676 -361.502
lowerback 12.5199 6.37067 -0.126625
upperback 3.13817 8.65894 -4.92412
thorax -2.88949 4.49536 -6.34396
lowerneck -14.0499 7.64327 -4.05911
upperneck 48.1001 23.6719 2.94682
head 20.7258 10.5358 7.49225
rclavicle -4.55217e-014 1.27222e-014
rhumerus -35.0745 -10.8256 -75.1797
rradius 42.2604
rwrist 2.55998
rhand -14.5629 8.85184
rfingers 7.12502
rthumb 11.5863 -20.8079
lclavicle -4.55217e-014 1.27222e-014
lhumerus -34.95 6.2864 74.5457
lradius 43.9167
lwrist -1.45956
lhand -16.4696 29.8426
lfingers 7.12502
lthumb 9.74714 59.597
rfemur -16.6081 -14.5337 19.9712
rtibia 59.0785
rfoot -9.65277 -8.29007
rtoes 1.55887
lfemur -11.5536 -8.76456 -24.9537
ltibia 20.5974
lfoot 173.611 -198.61
ltoes 20.899
